<svg width="16" height="16" viewBox="0 0 16 16" fill="none" xmlns="http://www.w3.org/2000/svg">
<g id="116">
<g id="icon">
<path d="M2.24444 2.92888L2.07111 2.75555C1.89778 2.58222 1.61778 2.58666 1.44889 2.75555L1.44444 2.76C1.27111 2.93333 1.27111 3.21333 1.44444 3.38222L1.61778 3.55555C1.79111 3.72888 2.06667 3.72888 2.24 3.55555L2.24444 3.55111C2.41778 3.38222 2.41778 3.09777 2.24444 2.92888Z" fill="white"/>
<path d="M0.893333 5.75555H0.44C0.195556 5.75555 0 5.95111 0 6.19555V6.2C0 6.44444 0.195556 6.64 0.44 6.64H0.888889C1.13778 6.64444 1.33333 6.44888 1.33333 6.20444V6.2C1.33333 5.95111 1.13778 5.75555 0.893333 5.75555Z" fill="white"/>
<path d="M4.89333 1.33333H4.88889C4.64 1.33333 4.44444 1.52888 4.44444 1.77333V2.2C4.44444 2.44444 4.64 2.64 4.88444 2.64H4.88889C5.13778 2.64444 5.33333 2.44888 5.33333 2.20444V1.77333C5.33333 1.52888 5.13778 1.33333 4.89333 1.33333Z" fill="white"/>
<path d="M8.33333 2.76C8.16 2.58666 7.88 2.58666 7.70667 2.75555L7.53333 2.92888C7.36 3.10222 7.36 3.38222 7.53333 3.55111L7.53778 3.55555C7.71111 3.72888 7.99111 3.72888 8.16 3.55555L8.33333 3.38222C8.50667 3.20888 8.50667 2.93333 8.33333 2.76Z" fill="white"/>
<path d="M4.88889 3.53333C3.41778 3.53333 2.22222 4.72888 2.22222 6.2C2.22222 7.15357 2.72455 7.99137 3.47865 8.46282C3.83949 7.41751 4.83206 6.66666 6 6.66666C6.04596 6.66666 6.09165 6.66783 6.13704 6.67012C6.32957 5.98685 6.71516 5.38448 7.23119 4.92564C6.7786 4.09661 5.89866 3.53333 4.88889 3.53333Z" fill="white"/>
<path d="M1.44444 9.64C1.61778 9.81333 1.89778 9.81333 2.07111 9.64L2.24444 9.46666C2.41778 9.29333 2.41333 9.01333 2.24444 8.84444L2.24 8.84C2.06667 8.66666 1.78667 8.66666 1.61333 8.84L1.44 9.01333C1.27111 9.19111 1.27111 9.46666 1.44444 9.64Z" fill="white"/>
<path d="M4.66667 14H13.3333C14.8061 14 16 12.8061 16 11.3333C16 10.0826 15.1389 9.03291 13.9772 8.7449C13.9923 8.60979 14 8.47247 14 8.33333C14 6.30828 12.3584 4.66666 10.3333 4.66666C8.65371 4.66666 7.23785 5.79602 6.80371 7.33679C6.75832 7.33449 6.71263 7.33333 6.66667 7.33333C5.19391 7.33333 4 8.52724 4 10C4 10.0378 4.00079 10.0755 4.00235 10.113C3.22433 10.3869 2.66667 11.1283 2.66667 12C2.66667 13.1046 3.5621 14 4.66667 14Z" fill="white"/>
</g>
</g>
</svg>
